<svg xmlns="http://www.w3.org/2000/svg" version="1.1" xmlns:xlink="http://www.w3.org/1999/xlink" xmlns:svgjs="http://svgjs.dev/svgjs" width="2000" height="1500" viewBox="0 0 2000 1500"><rect width="2000" height="1500" fill="#000000"></rect><g transform="matrix(0.75,0,0,0.75,249.090909090909,443.6874748481258)"><svg viewBox="0 0 396 161" data-background-color="#ffffff" preserveAspectRatio="xMidYMid meet" height="813" width="2000" xmlns="http://www.w3.org/2000/svg" xmlns:xlink="http://www.w3.org/1999/xlink"><g id="tight-bounds" transform="matrix(1,0,0,1,0.2400000000000091,0.3795679367802336)"><svg viewBox="0 0 395.52 160.24086412643953" height="160.24086412643953" width="395.52"><g><svg viewBox="0 0 610.1598648572667 247.2" height="160.24086412643953" width="395.52"><g><svg viewBox="0 0 341.0394793926247 247.2" height="247.2" width="341.0394793926247"><g id="textblocktransform"><svg viewBox="0 0 341.0394793926247 247.2" height="247.2" width="341.0394793926247" id="textblock"><g><svg viewBox="0 0 341.0394793926247 247.2" height="247.2" width="341.0394793926247"><g transform="matrix(1,0,0,1,0,0)"><svg width="341.0394793926247" viewBox="3 -35.01 62.11 45.019999999999996" height="247.2" data-palette-color="#3d3839"><path d="M19.7-6.86L19.7-6.86Q19.7-5.35 19.13-4 18.55-2.66 17.55-1.66 16.55-0.66 15.21-0.09 13.87 0.49 12.35 0.49L12.35 0.49 10.35 0.49Q8.84 0.49 7.5-0.09 6.15-0.66 5.15-1.66 4.15-2.66 3.58-4 3-5.35 3-6.86L3-6.86 3-18.14Q3-19.65 3.58-21 4.15-22.34 5.15-23.34 6.15-24.34 7.5-24.91 8.84-25.49 10.35-25.49L10.35-25.49 12.35-25.49Q13.87-25.49 15.21-24.91 16.55-24.34 17.55-23.34 18.55-22.34 19.13-21 19.7-19.65 19.7-18.14L19.7-18.14 19.7-12.26 6.01-12.26 6.01-6.69Q6.01-5.79 6.35-4.99 6.69-4.2 7.28-3.61 7.86-3.03 8.65-2.69 9.45-2.34 10.35-2.34L10.35-2.34 12.35-2.34Q13.26-2.34 14.05-2.69 14.84-3.03 15.43-3.61 16.02-4.2 16.36-4.99 16.7-5.79 16.7-6.69L16.7-6.69 16.7-8.35 19.7-7.86 19.7-6.86ZM16.7-14.6L16.7-18.31Q16.7-19.21 16.36-20.01 16.02-20.8 15.43-21.39 14.84-21.97 14.05-22.31 13.26-22.66 12.35-22.66L12.35-22.66 10.35-22.66Q9.45-22.66 8.65-22.31 7.86-21.97 7.28-21.39 6.69-20.8 6.35-20.01 6.01-19.21 6.01-18.31L6.01-18.31 6.01-14.6 16.7-14.6ZM42.4 0L41.4 0 39.74-2.54Q38.72-1.15 37.18-0.33 35.64 0.49 33.81 0.49L33.81 0.49 33.05 0.49Q31.54 0.49 30.2-0.09 28.85-0.66 27.85-1.66 26.85-2.66 26.28-4 25.71-5.35 25.71-6.86L25.71-6.86 25.71-18.14Q25.71-19.65 26.28-21 26.85-22.34 27.85-23.34 28.85-24.34 30.2-24.91 31.54-25.49 33.05-25.49L33.05-25.49 33.81-25.49Q35.5-25.49 36.94-24.8 38.38-24.12 39.4-22.9L39.4-22.9 39.4-35.01 42.4-35.01 42.4 0ZM39.4-6.69L39.4-18.31Q39.4-19.21 39.06-20.01 38.72-20.8 38.13-21.39 37.55-21.97 36.75-22.31 35.96-22.66 35.06-22.66L35.06-22.66 33.05-22.66Q32.15-22.66 31.36-22.31 30.56-21.97 29.98-21.39 29.39-20.8 29.05-20.01 28.71-19.21 28.71-18.31L28.71-18.31 28.71-6.69Q28.71-5.79 29.05-4.99 29.39-4.2 29.98-3.61 30.56-3.03 31.36-2.69 32.15-2.34 33.05-2.34L33.05-2.34 35.06-2.34Q35.96-2.34 36.75-2.69 37.55-3.03 38.13-3.61 38.72-4.2 39.06-4.99 39.4-5.79 39.4-6.69L39.4-6.69ZM65.11-6.86L65.11-6.86Q65.11-5.35 64.53-4 63.96-2.66 62.96-1.66 61.96-0.66 60.62-0.09 59.27 0.49 57.76 0.49L57.76 0.49 57 0.49Q55.32 0.49 53.88-0.2 52.44-0.88 51.41-2.1L51.41-2.1 51.41 10.01 48.41 10.01 48.41-25 49.41-25 51.04-22.46Q52.07-23.85 53.62-24.67 55.17-25.49 57-25.49L57-25.49 57.76-25.49Q59.27-25.49 60.62-24.91 61.96-24.34 62.96-23.34 63.96-22.34 64.53-21 65.11-19.65 65.11-18.14L65.11-18.14 65.11-6.86ZM62.1-6.69L62.1-18.31Q62.1-19.21 61.76-20.01 61.42-20.8 60.83-21.39 60.25-21.97 59.46-22.31 58.66-22.66 57.76-22.66L57.76-22.66 55.76-22.66Q54.85-22.66 54.06-22.31 53.27-21.97 52.68-21.39 52.09-20.8 51.75-20.01 51.41-19.21 51.41-18.31L51.41-18.31 51.41-6.69Q51.41-5.79 51.75-4.99 52.09-4.2 52.68-3.61 53.27-3.03 54.06-2.69 54.85-2.34 55.76-2.34L55.76-2.34 57.76-2.34Q58.66-2.34 59.46-2.69 60.25-3.03 60.83-3.61 61.42-4.2 61.76-4.99 62.1-5.79 62.1-6.69L62.1-6.69Z" opacity="1" transform="matrix(1,0,0,1,0,0)" fill="#ffffff" class="wordmark-text-0" data-fill-palette-color="primary" id="text-0"></path></svg></g></svg></g></svg></g></svg></g><g transform="matrix(1,0,0,1,399.3974665926247,53.71435017141866)"><svg viewBox="0 0 210.76239826464206 139.77129965716267" height="139.77129965716267" width="210.76239826464206"><g><svg xmlns="http://www.w3.org/2000/svg" xmlns:xlink="http://www.w3.org/1999/xlink" version="1.1" x="0" y="0" viewBox="0 16.841 100 66.31700000000001" enable-background="new 0 0 100 100" xml:space="preserve" height="139.77129965716267" width="210.76239826464206" class="icon-icon-0" data-fill-palette-color="accent" id="icon-0"><path d="M94.089 45.721H100L94.089 36.238H62.676L58.127 32.935V20.367H49.916V26.973L35.959 16.841 0 42.949H8.373V76.631H2.954V83.158H98.522V76.631H94.088V45.721zM25.53 59.286H17.24V50.996H25.53zM42.856 76.94H33.004V57.235H42.856zM64.531 59.286H56.241V50.996H64.531zM82.674 59.286H74.384V50.996H82.674z" fill="#ffffff" data-fill-palette-color="accent"></path></svg></g></svg></g></svg></g><defs></defs></svg><rect width="395.52" height="160.24086412643953" fill="none" stroke="none" visibility="hidden"></rect></g></svg></g></svg>